# xmcd
#
# Track frame offsets: 
#        150
#        16454
#        37769
#        53059
#        66786
#        85763
#        99394
#        115260
#        131129
#        147715
#        174568
#
# Disc length: 2555 seconds
#
# Revision: 0
# Processed by: cddbd v1.5.2PL0 Copyright (c) Steve Scherf et al.
# Submitted via: ExactAudioCopy v0.95a3
#
DISCID=9309f90b
DTITLE=Russell deCarle - Russell deCarle - Under the Big Big Sky
DYEAR=2013
DGENRE=Country
TTITLE0=East of the Sun, West of the Moon
TTITLE1=Baby Don't Come 'Round Here Anymore
TTITLE2=No Rule No School for Love
TTITLE3=Goin' Away Party
TTITLE4=Don't Ask the Question
TTITLE5=Shooting Star
TTITLE6=Fingernail Moon
TTITLE7=Under the Big Big Sky
TTITLE8=Can't Find the Song in My Heart
TTITLE9=Girl With the Golden Hair
TTITLE10=Blues for Christmas
EXTD=
EXTT0=
EXTT1=
EXTT2=
EXTT3=
EXTT4=
EXTT5=
EXTT6=
EXTT7=
EXTT8=
EXTT9=
EXTT10=
PLAYORDER=
